<?xml version="1.0" standalone="no"?><!DOCTYPE svg PUBLIC "-//W3C//DTD SVG 1.1//EN" "http://www.w3.org/Graphics/SVG/1.1/DTD/svg11.dtd"><svg t="1628170622538" class="icon" viewBox="0 0 1024 1024" version="1.1" xmlns="http://www.w3.org/2000/svg" p-id="2059" xmlns:xlink="http://www.w3.org/1999/xlink" width="200" height="200"><defs><style type="text/css"></style></defs><path d="M134.12352 605.24544A390.02112 390.02112 0 0 1 122.88 512C122.88 297.10336 297.10336 122.88 512 122.88c32.1536 0 63.36512 3.8912 93.24544 11.24352 140.14464-77.88544 263.74144-97.23904 322.80576-38.17472 59.06432 59.06432 39.7312 182.6816-38.17472 322.80576C897.2288 448.63488 901.12 479.86688 901.12 512c0 214.89664-174.22336 389.12-389.12 389.12-32.1536 0-63.36512-3.8912-93.24544-11.24352-140.14464 77.88544-263.74144 97.23904-322.80576 38.17472-59.06432-59.06432-39.7312-182.6816 38.17472-322.80576z m40.96 101.5808c-1.2288 2.8672-2.4576 5.7344-3.64544 8.6016-34.0992 82.45248-34.6112 137.6256-17.55136 154.68544 17.03936 17.05984 72.23296 16.54784 154.68544-17.55136 99.08224-40.96 213.52448-121.2416 318.13632-225.85344 104.61184-104.61184 184.87296-219.05408 225.85344-318.13632 34.0992-82.45248 34.6112-137.6256 17.55136-154.68544-17.03936-17.05984-72.23296-16.54784-154.68544 17.55136-2.8672 1.18784-5.7344 2.39616-8.6016 3.64544a390.7584 390.7584 0 0 1 86.07744 67.64544 198.08256 198.08256 0 0 1-1.78176 4.4032c-40.96 99.08224-121.2416 213.52448-225.85344 318.13632-104.61184 104.61184-219.05408 184.87296-318.13632 225.85344-1.47456 0.6144-2.92864 1.20832-4.4032 1.78176a390.7584 390.7584 0 0 1-67.64544-86.09792z" p-id="2060"></path></svg>